<svg width="375" height="91" viewBox="0 0 375 91" fill="none" xmlns="http://www.w3.org/2000/svg">
<path fill-rule="evenodd" clip-rule="evenodd" d="M0.23302 35.6887C0 37.8381 0 40.392 0 45.5C0 50.608 0 53.1619 0.23302 55.3113C2.25806 73.99 17.01 88.7419 35.6887 90.767C37.8381 91 40.392 91 45.5 91H329.5C334.608 91 337.162 91 339.311 90.767C357.99 88.7419 372.742 73.99 374.767 55.3113C375 53.1619 375 50.608 375 45.5C375 40.392 375 37.8381 374.767 35.6887C372.742 17.01 357.99 2.25806 339.311 0.23302C337.162 0 334.608 0 329.5 0H238.5C232.149 0 227 5.14873 227 11.5C227 33.3152 209.315 51 187.5 51C165.685 51 148 33.3152 148 11.5C148 5.14873 142.851 0 136.5 0H45.5C40.392 0 37.8381 0 35.6887 0.23302C17.01 2.25806 2.25806 17.01 0.23302 35.6887Z" fill="white"/>
</svg>
